<svg xmlns="http://www.w3.org/2000/svg" width="1000" height="500" viewBox="0 0 1000 500" role="img" aria-labelledby="title desc"><title id="title">People and tools</title><desc id="desc">An adult and child stand beside a pencil and a faceless computer.</desc><rect width="1000" height="500" fill="#f6f8f3"/><g font-family="Arial, sans-serif" fill="#20394c"><text x="40" y="55" font-size="34">People and tools</text><text x="40" y="96" font-size="23">A voice or friendly words do not make a tool a person.</text><g transform="translate(155 180) scale(1)"><circle cx="0" cy="0" r="23" fill="#c78f6c"/><path d="M-32 105 L-26 38 Q0 17 26 38 L32 105Z" fill="#498d7c"/><path d="M-15 105V151 M15 105V151 M-25 42L-48 92 M25 42L48 92" stroke="#243d55" stroke-width="13" stroke-linecap="round"/></g><g transform="translate(275 225) scale(0.7)"><circle cx="0" cy="0" r="23" fill="#c78f6c"/><path d="M-32 105 L-26 38 Q0 17 26 38 L32 105Z" fill="#d59a45"/><path d="M-15 105V151 M15 105V151 M-25 42L-48 92 M25 42L48 92" stroke="#243d55" stroke-width="13" stroke-linecap="round"/></g><rect x="600" y="174" width="190" height="115" rx="10" fill="#fff" stroke="#243d55" stroke-width="7"/><path d="M695 289v25 m-48 0h96" stroke="#243d55" stroke-width="7"/><g transform="translate(487 187) rotate(20)"><rect width="23" height="133" fill="#edbc47" stroke="#795415" stroke-width="3"/><path d="M0 133L11 158L23 133Z" fill="#c78f6c"/></g><text x="114" y="394" font-size="26">People</text><text x="559" y="394" font-size="26">Tools</text><text x="40" y="478" font-size="17">AI Introduction — Young Children · Read with a grown-up · CC BY 4.0</text></g></svg>

